<?xml version="1.0" encoding="UTF-8"?><svg id="Layer_2" xmlns="http://www.w3.org/2000/svg" viewBox="0 0 57.75 80.15"><defs><style>.cls-1{fill:#eb1c24;}</style></defs><g id="Layer_3"><path class="cls-1" d="m56.89,24.46s-1.33-12.38-8.52-18.2C38.94-1.37,23.51-.21,20.08.55,16.65,1.32.05,5.06,0,25.07l12.72-.23s1.6-10.94,12.94-10.87c14.88.09,13.46,14.45,13.46,14.45,0,0-17.54-4.58-28.51,9.08-5.9,7.34-7.94,32.27,2.11,38.77,15.2,9.82,28.68-2.03,28.68-2.03l-.04,4.65,16.4-.15-.86-54.26Zm-19.8,35.61c-1.57,1.83-8.5,6.51-13.92-.18-5.41-6.68-1.32-12.61-1.32-12.61,3.28-7,13.84-6.12,17.1-.23,3.25,5.89-.28,11.19-1.86,13.02Z"/></g></svg>